<mxfile host="65bd71144e">
    <diagram id="fNOxGuWoiBkBtxDfb2Ck" name="Page-1">
        <mxGraphModel dx="729" dy="804" grid="1" gridSize="10" guides="1" tooltips="1" connect="1" arrows="1" fold="1" page="1" pageScale="1" pageWidth="850" pageHeight="1100" math="0" shadow="0">
            <root>
                <mxCell id="0"/>
                <mxCell id="1" parent="0"/>
                <mxCell id="2" value="&#xa;  &#xa;    &#xa;      &#xa;        &#xa;        &#xa;        &#xa;        &#xa;          &#xa;        &#xa;        &#xa;        &#xa;          &#xa;        &#xa;        &#xa;        &#xa;          &#xa;        &#xa;        &#xa;          &#xa;        &#xa;        &#xa;          &#xa;        &#xa;        &#xa;        &#xa;          &#xa;        &#xa;        &#xa;          &#xa;        &#xa;        &#xa;        &#xa;        &#xa;          &#xa;        &#xa;        &#xa;        &#xa;          &#xa;        &#xa;        &#xa;        &#xa;          &#xa;        &#xa;        &#xa;        &#xa;          &#xa;        &#xa;        &#xa;        &#xa;          &#xa;        &#xa;        &#xa;          &#xa;        &#xa;        &#xa;          &#xa;        &#xa;        &#xa;          " style="text;whiteSpace=wrap;html=1;" parent="1" vertex="1">
                    <mxGeometry width="30" height="870" as="geometry"/>
                </mxCell>
                <mxCell id="3" style="rounded=1;strokeColor=#000000;strokeWidth=2;" vertex="1" parent="1">
                    <mxGeometry x="90" y="100" width="690" height="460" as="geometry"/>
                </mxCell>
                <mxCell id="4" value="ER Diagram: Product Management System" style="text;html=1;fontSize=18;fontStyle=1;strokeColor=none;fillColor=none;" vertex="1" parent="1">
                    <mxGeometry x="280" y="110" width="400" height="30" as="geometry"/>
                </mxCell>
                <mxCell id="5" value="Product&#xa;id (PK)&#xa;name&#xa;price&#xa;quantity" style="shape=rectangle;whiteSpace=wrap;html=1;rounded=1;strokeColor=#333399;" vertex="1" parent="1">
                    <mxGeometry x="570" y="250" width="160" height="120" as="geometry"/>
                </mxCell>
                <mxCell id="6" value="Admin&#xa;id (PK)&#xa;username&#xa;password" style="shape=rectangle;whiteSpace=wrap;html=1;rounded=1;strokeColor=#993333;" vertex="1" parent="1">
                    <mxGeometry x="130" y="160" width="140" height="60" as="geometry"/>
                </mxCell>
                <mxCell id="7" value="Manager&#xa;id (PK)&#xa;username&#xa;password" style="shape=rectangle;whiteSpace=wrap;html=1;rounded=1;strokeColor=#339966;" vertex="1" parent="1">
                    <mxGeometry x="170" y="450" width="140" height="60" as="geometry"/>
                </mxCell>
                <mxCell id="8" value="manages" style="rhombus;whiteSpace=wrap;html=1;strokeColor=#993333;fillColor=#fff2e6;" vertex="1" parent="1">
                    <mxGeometry x="330" y="160" width="100" height="80" as="geometry"/>
                </mxCell>
                <mxCell id="9" value="views" style="rhombus;whiteSpace=wrap;html=1;strokeColor=#339966;fillColor=#e6fff2;" vertex="1" parent="1">
                    <mxGeometry x="290" y="320" width="120" height="90" as="geometry"/>
                </mxCell>
                <mxCell id="10" style="endArrow=none;html=1;" edge="1" parent="1" source="6" target="8">
                    <mxGeometry relative="1" as="geometry"/>
                </mxCell>
                <mxCell id="11" style="endArrow=none;html=1;" edge="1" parent="1" source="8" target="5">
                    <mxGeometry relative="1" as="geometry"/>
                </mxCell>
                <mxCell id="12" style="endArrow=none;html=1;" edge="1" parent="1" source="7" target="9">
                    <mxGeometry relative="1" as="geometry"/>
                </mxCell>
                <mxCell id="13" style="endArrow=none;html=1;" edge="1" parent="1" source="9" target="5">
                    <mxGeometry relative="1" as="geometry"/>
                </mxCell>
                <mxCell id="14" value="1" style="text;html=1;strokeColor=none;fillColor=none;" vertex="1" parent="1">
                    <mxGeometry x="190" y="200" width="20" height="20" as="geometry"/>
                </mxCell>
                <mxCell id="15" value="N" style="text;html=1;strokeColor=none;fillColor=none;" vertex="1" parent="1">
                    <mxGeometry x="430" y="230" width="20" height="20" as="geometry"/>
                </mxCell>
                <mxCell id="16" value="1" style="text;html=1;strokeColor=none;fillColor=none;" vertex="1" parent="1">
                    <mxGeometry x="240" y="425" width="20" height="20" as="geometry"/>
                </mxCell>
                <mxCell id="17" value="N" style="text;html=1;strokeColor=none;fillColor=none;" vertex="1" parent="1">
                    <mxGeometry x="430" y="310" width="10" height="20" as="geometry"/>
                </mxCell>
            </root>
        </mxGraphModel>
    </diagram>
</mxfile>